# xmcd CD database file
#
# Track frame offsets:
#	150
#	22895
#	39850
#	58387
#	63272
#	81027
#	100102
#	118020
#	125370
#	143222
#	157567
#	181120
#
# Disc length: 2630 seconds
#
# Revision: 0
# Processed by: cddbd v1.5.1PL2 Copyright (c) Steve Scherf et al.
# Submitted via: CDex 1.51
#
DISCID=8c0a440c
DTITLE=Various Artist - Braidstream
DYEAR=1992
DGENRE=New Age
TTITLE0=Icarus - Ralph Towner
TTITLE1=Hyblaeon - LaRaye Cunningham
TTITLE2=Gimel Daleth - LaRaye Cunningham
TTITLE3=Heaven Sent - Russell Cook
TTITLE4=Crystal Silence - Chick Corea
TTITLE5=Spain - Chick Corea
TTITLE6=Like The Stars That Shine - LaRaye Cunningham
TTITLE7=Heart's Decree - LaRaye Cunningham
TTITLE8=Lord of the Moon - LaRaye Cunningham
TTITLE9=Dream Catcher - LaRaye Cunningham
TTITLE10=Play of Lights - Rita Hayes
TTITLE11=Lucky Southern - Keith Jarrett
EXTD=YEAR: 1992
EXTT0=
EXTT1=
EXTT2=
EXTT3=
EXTT4=
EXTT5=
EXTT6=
EXTT7=
EXTT8=
EXTT9=
EXTT10=
EXTT11=
PLAYORDER=
